<?xml version="1.0" encoding="UTF-8"?>
<svg id="Capa_1" data-name="Capa 1" xmlns="http://www.w3.org/2000/svg" viewBox="0 0 376.79 609.25">
  <polygon points="56.13 81.51 132.39 162.42 96.39 261.51 225.68 214.29 323.61 294.8 283.74 192.22 344.13 165.9 264.39 138.42 214.84 6.42 165.29 102.03 56.13 81.51" style="fill: #ffcc29;"/>
  <polygon points="150.06 284.09 255.87 284.09 376.79 609.25 308 609.25 205.29 335.71 132.52 515.32 63.87 514.29 150.06 284.09" style="fill: #5a468d;"/>
  <polygon points="60.19 138.74 70.65 171.83 102.58 177.25 75.29 195.64 89.61 230.48 58.84 206.09 24.77 229.32 37.55 197 0 157.71 48.58 166.8 60.19 138.74" style="fill: #ffcc29;"/>
  <polygon points="307.03 0 317.48 33.1 349.42 38.52 322.13 56.9 336.45 91.74 305.68 67.35 271.61 90.58 284.39 58.26 246.84 18.97 295.42 28.06 307.03 0" style="fill: #ffcc29;"/>
</svg>